<svg version="1.0" xmlns="http://www.w3.org/2000/svg" viewBox="0 0 306 513" stroke="#f53d5c" fill="#f53d5c">
  <path d="M16.2 16.3C6.3 26.2 0 33.3 0 34.5c0 1.5 1.2.7 5.5-3.5l5.5-5.5 12 12 12 12-12 12-12 12L5.5 68C1.1 63.7 0 63 0 64.6c0 1.1 2 4 4.5 6.4L9 75.4 4.5 80C2 82.5 0 85.4 0 86.5c0 1.5 1.3.7 5.5-3.5l5.5-5.5 5.5 5.5 5.5 5.5-5.5 5.5-5.5 5.4L5.5 94C1.1 89.7 0 89 0 90.6c0 1.1 2 4 4.5 6.4l4.5 4.4-4.5 4.6C2 108.5 0 111.4 0 112.5c0 1.5 1.3.7 5.5-3.5l5.5-5.5 12 12 12 12-12 12-12 12-5.5-5.5c-4.4-4.3-5.5-5-5.5-3.4 0 1.1 2 4 4.5 6.4l4.5 4.4-4.5 4.6C2 160.5 0 163.5 0 164.5c0 1.6 1.3.7 5.5-3.6l5.4-5.6 5.3 5.4 5.2 5.3-5.4 5.5-5.4 5.5-5.3-5.2c-4.1-4-5.3-4.8-5.3-3.3 0 1.1 1.9 3.9 4.2 6.2l4.2 4.3-4.2 4.3c-2.3 2.3-4.2 5.1-4.2 6.2 0 1.5 1.2.7 5.3-3.3l5.2-5.2 12 12 12 12-11.7 11.7L11 228.5 5.5 223c-4.3-4.3-5.5-5-5.5-3.5 0 1.3 6.5 8.5 17 19 9.4 9.3 17 17.4 17 18 0 .6-7.7 8.7-17 18-10.5 10.5-17 17.7-17 19 0 1.5 1.2.8 5.5-3.5l5.5-5.5 12 12 12 12-12 12-12 12-5.5-5.5c-4.4-4.3-5.5-5-5.5-3.4 0 1.1 2 4 4.5 6.4l4.5 4.4-4.5 4.6C2 341.5 0 344.4 0 345.5c0 1.5 1.3.7 5.5-3.5l5.5-5.5 5.5 5.5 5.5 5.5-5.5 5.5-5.5 5.4-5.5-5.4c-4.2-4.2-5.5-5-5.5-3.5 0 1.1 2 4 4.5 6.5l4.5 4.6-4.5 4.4C2 367.4 0 370.3 0 371.4c0 1.6 1.1.9 5.5-3.4l5.5-5.5 11.8 11.8L34.5 386l-12 12-12 12-5.2-5.2c-4.1-4-5.3-4.8-5.3-3.3 0 1.1 1.9 3.9 4.2 6.2l4.2 4.3-4.2 4.3c-2.3 2.3-4.2 5.1-4.2 6.2 0 1.5 1.2.7 5.3-3.3l5.3-5.2 5.4 5.5 5.4 5.5-5.4 5.5-5.4 5.5-5.3-5.2c-4.1-4-5.3-4.8-5.3-3.3 0 1.1 1.9 3.9 4.2 6.2l4.2 4.3-4.2 4.3c-2.3 2.3-4.2 5.1-4.2 6.2 0 1.5 1.2.7 5.3-3.3l5.2-5.2 12 12 12 12-11.7 11.7L11 487.5 5.5 482c-4.3-4.3-5.5-5-5.5-3.5 0 2.7 31.8 34.5 34.5 34.5 1.5 0 .8-1.2-3.3-5.3l-5.2-5.3 5.5-5.4 5.5-5.4 5 4.9c2.7 2.7 5 5.4 5 5.9 0 .6-2.1 3.2-4.7 5.8-3.7 3.8-4.3 4.8-2.8 4.8 1.1 0 3.9-1.9 6.2-4.2l4.3-4.2 4.3 4.2c2.3 2.3 5.1 4.2 6.2 4.2 1.5 0 .7-1.2-3.3-5.3l-5.2-5.3 5.3-5.2 5.3-5.2 5.9 6c3.3 3.3 6.4 6 6.9 6 .6 0 3.8-2.7 7.1-6l6.1-6 5.4 5.5 5.4 5.5-4.9 5c-4 4-4.5 5-2.9 5 1.1 0 3.8-1.8 5.9-4l3.9-4 4.1 4c2.2 2.2 4.9 4 6 4 1.5 0 .8-1.1-3-5l-5-5 5.5-5.5 5.5-5.5 5.5 5.5 5.4 5.5-4.9 5c-3.9 4-4.5 5-3 5 1.3 0 8.5-6.5 19-17l17-17 17 17c10.4 10.4 17.8 17 19 17 1.5 0 .8-1.2-3.3-5.3l-5.2-5.3 5.5-5.4 5.5-5.4 5.5 5.4 5.5 5.4-5.2 5.3c-4 4.1-4.8 5.3-3.3 5.3 1.1 0 3.9-1.9 6.2-4.2l4.3-4.2 4.3 4.2c2.3 2.3 5.1 4.2 6.2 4.2 1.5 0 .7-1.2-3.3-5.3l-5.2-5.3 5.5-5.4 5.5-5.4 6.5 6.4 6.5 6.4 6.5-6.4 6.5-6.4 5.5 5.4 5.5 5.4-5.2 5.3c-4 4.1-4.8 5.3-3.3 5.3 1.1 0 3.9-1.9 6.2-4.2l4.3-4.2 4.3 4.2c2.3 2.3 5.1 4.2 6.2 4.2 1.5 0 .7-1.2-3.3-5.3l-5.2-5.3 5.5-5.4 5.5-5.4 5 4.9c2.7 2.7 5 5.4 5 5.9 0 .6-2.1 3.2-4.7 5.8-3.8 3.9-4.3 4.8-2.8 4.8 2.7 0 33.5-30.8 33.5-33.5 0-1.5-1-1-4.8 2.8-2.6 2.6-5.2 4.7-5.8 4.7-.5 0-6.1-5.2-12.4-11.5L271.5 464l12-12 12-12 5.2 5.2c4.1 4 5.3 4.8 5.3 3.3 0-1.1-1.9-3.9-4.2-6.2l-4.2-4.3 4.2-4.3c2.3-2.3 4.2-5.1 4.2-6.2 0-1.5-1.2-.7-5.3 3.3l-5.3 5.2-5.4-5.5-5.4-5.5 5.4-5.5 5.4-5.5 5.3 5.2c4.1 4 5.3 4.8 5.3 3.3 0-1.1-1.9-3.9-4.2-6.2l-4.2-4.3 4.2-4.3c2.3-2.3 4.2-5.1 4.2-6.2 0-1.5-1.2-.7-5.3 3.3l-5.2 5.2-12-12-12-12 11.5-11.5c6.3-6.3 11.9-11.5 12.4-11.5.6 0 3.2 2.1 5.8 4.7 3.8 3.7 4.8 4.3 4.8 2.8 0-1.1-1.9-3.9-4.2-6.2l-4.2-4.3 4.2-4.3c2.3-2.3 4.2-5.1 4.2-6.2 0-1.5-1.2-.7-5.3 3.3l-5.3 5.2-5.4-5.5-5.4-5.5 4.9-5c2.7-2.7 5.4-5 5.9-5 .6 0 3.2 2.1 5.8 4.7 3.8 3.7 4.8 4.3 4.8 2.8 0-1.1-1.9-3.9-4.2-6.3l-4.3-4.3 4.2-4c2.4-2.2 4.3-4.7 4.3-5.6 0-1.2-1.6-.1-5 3.2l-5 5-12-12-12-12 12-12 12-11.9 5 4.9c4 3.9 5 4.5 5 3 0-1.3-6.5-8.5-17-19l-17-17 17-17c10.4-10.4 17-17.8 17-19 0-1.5-1-1-4.8 2.8-2.6 2.6-5.2 4.7-5.8 4.7-.5 0-6.1-5.2-12.4-11.5L271.5 205l12-12 12-12 5.2 5.2c4.1 4 5.3 4.8 5.3 3.3 0-1.1-1.9-3.9-4.2-6.2l-4.2-4.3 4.2-4.3c2.3-2.3 4.2-5.1 4.2-6.2 0-1.5-1.2-.7-5.3 3.3l-5.3 5.2-5.4-5.5-5.4-5.5 5.4-5.5 5.4-5.5 5.3 5.2c4.1 4 5.3 4.8 5.3 3.3 0-1.1-1.9-3.9-4.2-6.2l-4.2-4.3 4.2-4.3c2.3-2.3 4.2-5.1 4.2-6.2 0-1.5-1.2-.7-5.3 3.3l-5.2 5.2-12-12-12-12 11.5-11.5c6.3-6.3 11.9-11.5 12.4-11.5.6 0 3.2 2.1 5.8 4.7 3.8 3.7 4.8 4.3 4.8 2.8 0-1.1-1.9-3.9-4.2-6.2l-4.2-4.3 4.2-4.3c2.3-2.3 4.2-5.1 4.2-6.2 0-1.5-1.2-.7-5.3 3.3l-5.3 5.2-5.2-5.3-5.2-5.3 5.5-5.4 5.5-5.4 5 4.9c4 4 5 4.5 5 2.9 0-1.1-1.8-3.8-4-5.9l-4-3.9 4-4.1c2.2-2.2 4-4.9 4-6 0-1.5-1.1-.8-5 3l-5 4.9-12-11.9-12-12 12-12 12-12 5 5c4 3.9 5 4.5 5 3C306 30.8 275.2 0 272.5 0c-1.5 0-1 1 2.8 4.8 2.6 2.6 4.7 5.2 4.7 5.8 0 .5-2.3 3.2-5 5.9l-5 4.9-5.5-5.4-5.5-5.4 5.2-5.3c4-4.1 4.8-5.3 3.3-5.3-1.1 0-3.9 1.9-6.2 4.2L257 8.4l-4.3-4.2c-2.3-2.3-5.1-4.2-6.2-4.2-1.5 0-.7 1.2 3.3 5.3l5.2 5.3-5.5 5.4-5.5 5.4-6.5-6.4-6.5-6.4-6.5 6.4-6.5 6.4-5.5-5.4-5.5-5.4 5.2-5.3c4-4.1 4.8-5.3 3.3-5.3-1.1 0-3.9 1.9-6.2 4.2L205 8.4l-4.3-4.2c-2.3-2.3-5.1-4.2-6.2-4.2-1.5 0-.7 1.2 3.3 5.3l5.2 5.3-5.5 5.4-5.5 5.4-5.5-5.4-5.5-5.4 5.2-5.3c4.1-4.1 4.8-5.3 3.3-5.3-1.2 0-8.7 6.7-19.2 17.2L153 34.5l-17.3-17.3C125.2 6.7 117.7 0 116.5 0c-1.5 0-.7 1.2 3.5 5.5l5.4 5.5-4.9 5c-2.7 2.7-5.4 5-6 5-.6 0-3.3-2.3-6-5l-4.9-5 5.4-5.5c4.3-4.4 5-5.5 3.4-5.5-1.1 0-3.8 1.8-5.9 4-2.1 2.2-4.4 4-5 4-.6 0-2.9-1.8-5-4s-4.8-4-5.9-4C89 0 89.7 1.1 94 5.5l5.4 5.5-4.9 5c-2.7 2.7-5.4 5-6 5-.6 0-3.7-2.7-7-6l-5.9-6-6.3 6.2-6.3 6.2-5.5-5.4-5.5-5.4 5.2-5.3C61.2 1.2 62 0 60.5 0c-1.1 0-3.9 1.9-6.2 4.2L50 8.4l-4.3-4.2C43.4 1.9 40.6 0 39.5 0c-1.5 0-.9 1 2.8 4.8C44.9 7.4 47 10 47 10.6c0 .5-2.3 3.2-5 5.9l-5 4.9-5.5-5.4-5.5-5.4 5.2-5.3C35.3 1.1 36 0 34.5 0c-1.3 0-8.2 6.2-18.3 16.3zm14.5 2.9l6.3 6.2 6.5-6.4 6.5-6.4 5 4.9c2.7 2.7 5 5.4 5 6 0 .6-5.2 6.2-11.5 12.5L37 47.5l-12-12-12-12 5.2-5.2c2.9-2.9 5.5-5.3 5.7-5.3.3 0 3.4 2.8 6.8 6.2zm50.5 10L76 34.5 70.5 29 65 23.6l5.2-5.3 5.3-5.3 5.5 5.5 5.5 5.5-5.3 5.2zm33.3-4.2c.5 0 3.7-2.7 7-6l6.1-6 5.2 5.3 5.2 5.2-12 12-12 12-11.7-11.7L90.5 24l5.5-5.5 5.4-5.5 6.1 6c3.3 3.3 6.5 6 7 6zm71.2-5.8l6.3 6.2 6.5-6.4 6.5-6.5 5.5 5.5 5.5 5.5-12 12-12 12L180.5 36c-6.3-6.3-11.5-11.9-11.5-12.4 0-1 9-10.6 9.9-10.6.3 0 3.4 2.8 6.8 6.2zm51.1-.9l5.2 5.3-5.5 5.4-5.5 5.4-5.5-5.4-5.5-5.4 5.2-5.3c2.9-2.9 5.5-5.3 5.8-5.3.3 0 2.9 2.4 5.8 5.3zm26.9.9l6.3 6.2 6.5-6.4 6.5-6.4 5 4.9c2.7 2.7 5 5.4 5 6 0 .6-5.2 6.2-11.5 12.5L270 47.5l-12-12-12-12 5.2-5.2c2.9-2.9 5.5-5.3 5.7-5.3.3 0 3.4 2.8 6.8 6.2zM68.2 30.7c2.6 2.6 4.8 5.2 4.8 5.7 0 .6-2.7 3.8-6 7.1l-6 6.1 6 5.9c3.3 3.3 6 6.4 6 7 0 .6-2.3 3.3-5 6l-5 4.9-12-11.9-12-12 11.7-11.7C57.2 31.3 62.7 26 63 26c.2 0 2.6 2.1 5.2 4.7zm32.1 30.5L88.5 73l-5.2-5.2-5.3-5.2 6-6.1c3.3-3.3 6-6.5 6-7.1 0-.5-2.7-3.6-6-6.9l-6-5.9 5.2-5.3 5.3-5.3 11.7 11.7L112 49.5l-11.7 11.7zm45.5-29.9l5.2 5.3-6 5.9c-3.3 3.3-6 6.4-6 6.9 0 .6 2.7 3.8 6 7.1l6 6.1-5.5 5.4-5.5 5.4L128.5 62c-6.3-6.3-11.5-11.9-11.5-12.5 0-1 22-23.5 23-23.5.3 0 2.9 2.4 5.8 5.3zm32.5 6.5L190 49.5l-12 12-12 11.9-5-4.9c-2.7-2.7-5-5.4-5-6 0-.6 2.7-3.7 6-7l6-5.9-6-6.1c-3.3-3.3-6-6.5-6-7 0-1 9-10.5 10-10.5.3 0 5.8 5.3 12.3 11.8zm45.5-6.5l5.2 5.3-6.5 6.4-6.5 6.4 6.5 6.6 6.5 6.6-5.5 5.4-5.5 5.5-12-12-12-12 11.7-11.7c6.5-6.5 12-11.8 12.3-11.8.3 0 2.9 2.4 5.8 5.3zm32.5 6.5L268 49.5l-12 12-12 12-5.5-5.5-5.5-5.4 6.5-6.6 6.5-6.6-6.5-6.4-6.5-6.4 5.2-5.3c2.9-2.9 5.5-5.3 5.8-5.3.3 0 5.8 5.3 12.3 11.8zM81.2 43.7c2.6 2.6 4.8 5.2 4.8 5.8 0 .6-2.3 3.3-5 6l-5 4.9-5.5-5.4-5.5-5.4 5.2-5.3c2.9-2.9 5.5-5.3 5.7-5.3.3 0 2.7 2.1 5.3 4.7zm77.6.6l5.2 5.3-5.5 5.4-5.5 5.4-5-4.9c-2.7-2.7-5-5.4-5-5.9 0-1.1 9-10.6 10-10.6.3 0 2.9 2.4 5.8 5.3zm78 0l5.2 5.3-5.5 5.4-5.5 5.4-5.5-5.4-5.5-5.4 5.2-5.3c2.9-2.9 5.5-5.3 5.8-5.3.3 0 2.9 2.4 5.8 5.3zM48.7 63.2C54.9 69.4 60 74.9 60 75.5c0 .6-2.3 3.3-5 6l-5 4.9-6.5-6.4-6.5-6.4-6.5 6.4-6.5 6.4-5.5-5.4-5.5-5.5 11.7-11.7C31.2 57.3 36.7 52 37 52c.2 0 5.5 5.1 11.7 11.2zm77.6.6L138 75.5l-5.3 5.3-5.3 5.2-5.9-6c-3.3-3.3-6.4-6-6.9-6-.6 0-3.8 2.7-7.1 6l-6.1 6-5.4-5.5-5.4-5.5L102 63.5c6.3-6.3 11.7-11.5 12-11.5.3 0 5.8 5.3 12.3 11.8zm78 0L216 75.5l-5.5 5.5-5.5 5.4-6.5-6.4-6.5-6.4-6.5 6.4-6.5 6.4-5-4.9c-2.7-2.7-5-5.4-5-5.9 0-1.1 22-23.6 23-23.6.3 0 5.8 5.3 12.3 11.8zm77.4-.6c6.2 6.2 11.3 11.7 11.3 12.3 0 .6-2.3 3.3-5 6l-5 4.9-6.5-6.4-6.5-6.4-6.5 6.4-6.5 6.4-5.5-5.4-5.5-5.5 11.7-11.7c6.5-6.5 12-11.8 12.3-11.8.2 0 5.5 5.1 11.7 11.2zM81.5 70l4.9 5-5.4 5.5-5.4 5.5-5.3-5.2-5.3-5.2 5.2-5.3c2.9-2.9 5.5-5.3 5.8-5.3.3 0 2.8 2.3 5.5 5zm77.3.3l5.2 5.3-5.5 5.4-5.5 5.4-5-4.9c-2.7-2.7-5-5.4-5-5.9 0-1.1 9-10.6 10-10.6.3 0 2.9 2.4 5.8 5.3zm78 0l5.2 5.3-5.5 5.4-5.5 5.4-5.5-5.4-5.5-5.4 5.2-5.3c2.9-2.9 5.5-5.3 5.8-5.3.3 0 2.9 2.4 5.8 5.3zM42.2 82.7c2.6 2.6 4.8 5.2 4.8 5.8 0 .6-2.3 3.3-5 6l-5 4.9-5.5-5.4-5.5-5.4 5.2-5.3c2.9-2.9 5.5-5.3 5.7-5.3.3 0 2.7 2.1 5.3 4.7zm26.3.3l4.9 5-5.4 5.5-5.4 5.5-5.3-5.2-5.3-5.2 5.2-5.3c2.9-2.9 5.5-5.3 5.8-5.3.3 0 2.8 2.3 5.5 5zm26 0l4.9 5-5.4 5.5-5.5 5.5-5.5-5.5-5.5-5.5 5-5c2.7-2.7 5.4-5 6-5 .6 0 3.3 2.3 6 5zm26 0l4.9 5-5.4 5.5-5.5 5.5-5.5-5.5-5.5-5.5 5-5c2.7-2.7 5.4-5 6-5 .6 0 3.3 2.3 6 5zm25.3.3l5.2 5.3-5.3 5.2-5.3 5.2-5.4-5.5-5.4-5.5 4.9-5c2.7-2.7 5.2-5 5.5-5 .3 0 2.9 2.4 5.8 5.3zm26 0l5.2 5.3-5.5 5.4-5.5 5.4-5-4.9c-2.7-2.7-5-5.4-5-5.9 0-1.1 9-10.6 10-10.6.3 0 2.9 2.4 5.8 5.3zm26 0l5.2 5.3-5.5 5.4-5.5 5.4-5-4.9c-2.7-2.7-5-5.4-5-5.9 0-1.1 9-10.6 10-10.6.3 0 2.9 2.4 5.8 5.3zm26 0l5.2 5.3-5.5 5.4-5.5 5.4-5.5-5.4-5.5-5.4 5.2-5.3c2.9-2.9 5.5-5.3 5.8-5.3.3 0 2.9 2.4 5.8 5.3zm25.4-.6c2.6 2.6 4.8 5.2 4.8 5.8 0 .6-2.3 3.3-5 6l-5 4.9-5.5-5.4-5.5-5.4 5.2-5.3c2.9-2.9 5.5-5.3 5.7-5.3.3 0 2.7 2.1 5.3 4.7zm26 0c2.6 2.6 4.8 5.2 4.8 5.8 0 .6-2.3 3.3-5 6l-5 4.9-5.5-5.4-5.5-5.4 5.2-5.3c2.9-2.9 5.5-5.3 5.7-5.3.3 0 2.7 2.1 5.3 4.7zM30.7 97.2l6.3 6.2 6.5-6.4 6.5-6.4 5 4.9c2.7 2.7 5 5.4 5 6 0 .6-5.2 6.2-11.5 12.5L37 125.5l-12-12-12-12 5.2-5.2c2.9-2.9 5.5-5.3 5.7-5.3.3 0 3.4 2.8 6.8 6.2zM94.5 109l18 18L94 145.5 75.5 164l-18.4-18.4-18.4-18.4 17.8-18.1C66.3 99.1 74.8 91 75.4 91c.6 0 9.2 8.1 19.1 18zm14-12l5.9 6 6.1-6c3.3-3.3 6.5-6 7.1-6 .5 0 3.2 2.3 5.9 5l5 5-12 12-12 12-12-12-11.9-12 4.9-5c2.7-2.7 5.4-5 6-5 .6 0 3.7 2.7 7 6zm50.3-.7l5.2 5.3-5.3 5.2-5.3 5.2-5.4-5.5-5.4-5.5 4.9-5c2.7-2.7 5.2-5 5.5-5 .3 0 2.9 2.4 5.8 5.3zm26.9.9l6.3 6.2 6.5-6.4 6.5-6.5 5.5 5.5 5.5 5.5-12 12-12 12-11.5-11.5c-6.3-6.3-11.5-11.9-11.5-12.4 0-1 9-10.6 9.9-10.6.3 0 3.4 2.8 6.8 6.2zm63.8 11.8l18 18-18.5 18.5-18.5 18.5-18.2-18.2-18.3-18.3 18.2-18.2C222.3 99.2 230.7 91 231 91c.3 0 8.6 8.1 18.5 18zm14.2-11.8l6.3 6.2 6.5-6.4 6.5-6.5 5.2 5.3 5.3 5.2-12 12-12 12-11.7-11.7-11.8-11.8 5.2-5.2c2.9-2.9 5.5-5.3 5.7-5.3.3 0 3.4 2.8 6.8 6.2zM146.5 109l4.9 5-6.4 6.5-6.4 6.5 6.4 6.5 6.5 6.5-5.5 5.5-5.5 5.5-12-12-12-12 11.5-11.5c6.3-6.3 11.9-11.5 12.5-11.5.6 0 3.3 2.3 6 5zm31.8 6.8l11.7 11.7-11.8 11.8-11.7 11.7-5.5-5.5-5.4-5.5 6.4-6.5 6.4-6.5-6.4-6.5-6.4-6.5 4.9-5c2.7-2.7 5.2-5 5.5-5 .3 0 5.8 5.3 12.3 11.8zm-18.8 6.2l4.9 5-5.4 5.5-5.5 5.5-5.5-5.5-5.5-5.5 5-5c2.7-2.7 5.4-5 6-5 .6 0 3.3 2.3 6 5zM133 158.5l-5.4 5.5-6.6-6.5-6.6-6.5-6.4 6.5-6.5 6.5-5.5-5.5-5.5-5.5 12-12 12-12 12 12 12 12-5.5 5.5zm155 0l-5.4 5.5-6.6-6.5-6.6-6.5-6.4 6.5-6.5 6.5-5.5-5.5-5.5-5.5 12-12 12-12 12 12 12 12-5.5 5.5zm-239-17L60.5 153l-5.5 5.5-5.5 5.5-6.5-6.5-6.4-6.5-6.6 6.5-6.6 6.5-5.4-5.6-5.5-5.6 12-11.4C31.1 135.2 36.7 130 37 130c.3 0 5.7 5.2 12 11.5zm155.3.3l11.7 11.7-5.3 5.3-5.3 5.2-6.4-6.5-6.4-6.5-6.6 6.5-6.6 6.5-5.4-5.5-5.4-5.5 11.4-11.5c6.3-6.3 11.7-11.5 12-11.5.3 0 5.8 5.3 12.3 11.8zM159 158.5l-5.5 5.5-5.5-5.5-5.5-5.5 5.5-5.5 5.5-5.5 5.5 5.5 5.5 5.5-5.5 5.5zm-117 13l-5.5 5.5-5.5-5.5-5.5-5.5 5.5-5.5 5.5-5.5 5.5 5.5 5.5 5.5-5.5 5.5zm26 0l-5.5 5.5-5.5-5.5-5.5-5.5 5.5-5.5 5.5-5.5 5.5 5.5 5.5 5.5-5.5 5.5zm26 0l-5.5 5.5-5.5-5.5-5.5-5.5 5.5-5.5 5.5-5.5 5.5 5.5 5.5 5.5-5.5 5.5zm26 0l-5.5 5.5-5.5-5.5-5.5-5.5 5.5-5.5 5.5-5.5 5.5 5.5 5.5 5.5-5.5 5.5zm26 0l-5.5 5.5-5.5-5.5-5.5-5.5 5.5-5.5 5.5-5.5 5.5 5.5 5.5 5.5-5.5 5.5zm26 0l-5.5 5.5-5.5-5.5-5.5-5.5 5.5-5.5 5.5-5.5 5.5 5.5 5.5 5.5-5.5 5.5zm26 0l-5.5 5.5-5.5-5.5-5.5-5.5 5.5-5.5 5.5-5.5 5.5 5.5 5.5 5.5-5.5 5.5zm51 0l-5.5 5.5-5.5-5.5-5.5-5.5 5.5-5.5 5.5-5.5 5.5 5.5 5.5 5.5-5.5 5.5zm26 0l-5.5 5.5-5.5-5.5-5.5-5.5 5.5-5.5 5.5-5.5 5.5 5.5 5.5 5.5-5.5 5.5zM223.5 161l5 5-5.3 5.3-5.2 5.2-5.2-5.2-5.3-5.3 5-5c2.7-2.7 5.2-5 5.5-5 .3 0 2.8 2.3 5.5 5zM43 174.5l6.5-6.5 5.5 5.5 5.5 5.5-12 12-12 12-12-12-12-12 5.5-5.5 5.4-5.5 6.6 6.5 6.6 6.5 6.4-6.5zm38 10l-5.5 5.5-5.5-5.5-5.5-5.5 5.5-5.5 5.5-5.5 5.5 5.5 5.5 5.5-5.5 5.5zm40-10l6.5-6.5 5.5 5.5 5.5 5.5-12 12-12 12-12-12-12-12 5.5-5.5 5.4-5.5 6.6 6.5 6.6 6.5 6.4-6.5zm38 10l-5.5 5.5-5.5-5.5-5.5-5.5 5.5-5.5 5.5-5.5 5.5 5.5 5.5 5.5-5.5 5.5zm40-10l6.5-6.5 5.2 5.2 5.1 5.3-11.7 12.2-11.7 12.2-11.9-11.9-12-12 5.5-5.5 5.4-5.5 6.6 6.5 6.5 6.5 6.5-6.5zm37 10.1l-5.5 5.5-5.3-5.7-5.3-5.8 5.3-5.3 5.3-5.3 5.5 5.5 5.5 5.5-5.5 5.6zm40-10.1l6.5-6.5 5.5 5.5 5.5 5.5-12 12-12 12-12-12-12-12 5.5-5.5 5.4-5.5 6.6 6.5 6.6 6.5 6.4-6.5zm-209 24l-6.4 6.5 6.4 6.5 6.4 6.5-4.9 5c-2.7 2.7-5.4 5-6 5-.6 0-6.2-5.2-12.5-11.5L38.5 205l12-12 12-12 5.5 5.5 5.5 5.5-6.5 6.5zm34 18c-6.3 6.3-11.9 11.5-12.5 11.5-.6 0-3.3-2.3-6-5l-4.9-5 6.4-6.5 6.4-6.5-6.4-6.5-6.4-6.5 5.4-5.5 5.5-5.5 12 12 12 12-11.5 11.5zm44-18l-6.4 6.5 6.4 6.5 6.4 6.5-4.9 5c-2.7 2.7-5.4 5-6 5-.6 0-6.2-5.2-12.5-11.5L116.5 205l12-12 12-12 5.5 5.5 5.5 5.5-6.5 6.5zm33.5 18.5l-12 12-5.5-5.5-5.5-5.5 6.5-6.5 6.4-6.5-6.4-6.5-6.4-6.5 5.4-5.5 5.5-5.5 12 12 12 12-12 12zm45.3-30.7l5.2 5.3-6.5 6.4-6.5 6.4 6.5 6.6 6.5 6.6-5.5 5.4-5.5 5.5-12-12-12-12 11.7-11.7c6.5-6.5 12-11.8 12.3-11.8.3 0 2.9 2.4 5.8 5.3zm32 30.4L244 228.5l-5.5-5.5-5.5-5.4 6.2-6.3 6.2-6.3-6.4-6.5-6.4-6.5 5.4-5.5 5.5-5.5 12 12 12 12-11.7 11.7zM81.5 210c-2.7 2.7-5.4 5-6 5-.6 0-3.3-2.3-6-5l-4.9-5 5.4-5.5 5.5-5.5 5.5 5.5 5.5 5.5-5 5zm77.5.5l-5.5 5.5-5.5-5.5-5.5-5.5 5.5-5.5 5.5-5.5 5.5 5.5 5.5 5.5-5.5 5.5zm77.8-11.2l5.2 5.3-5.5 5.4-5.5 5.4-5.5-5.4-5.5-5.4 5.2-5.3c2.9-2.9 5.5-5.3 5.8-5.3.3 0 2.9 2.4 5.8 5.3zM55.3 236.2l-5.3 5.3-6.5-6.5-6.5-6.4-6.5 6.4-6.5 6.4-5.5-5.4-5.5-5.5 11.7-11.7L36.5 207l12 12 12 12-5.2 5.2zm78.2-.2c-2.7 2.7-5.4 5-5.9 5-.6 0-3.8-2.7-7.1-6l-6.1-6-5.9 6c-3.3 3.3-6.4 6-7 6-.6 0-3.3-2.3-6-5l-4.9-5 11.9-12 12-12 12 12 12 12-5 5zm70.8-17.2l11.7 11.7-5.5 5.5-5.5 5.4-6.5-6.4-6.5-6.4-6.5 6.4-6.5 6.4-5.5-5.4-5.5-5.5 11.7-11.7c6.5-6.5 12-11.8 12.3-11.8.3 0 5.8 5.3 12.3 11.8zm84.2 17.2c-2.7 2.7-5.4 5-6 5-.6 0-3.7-2.7-7-6l-5.9-6-6.3 6.2-6.3 6.2-5.5-5.4-5.5-5.5 11.7-11.7 11.8-11.8 12 12 12 12-5 5zm-207 0c-2.7 2.7-5.4 5-6 5-.6 0-3.3-2.3-6-5l-4.9-5 5.4-5.5 5.5-5.5 5.5 5.5 5.5 5.5-5 5zm90 39L153 293.5l-18.2-18.3-18.3-18.2 18.5-18.5 18.5-18.5 18.2 18.2 18.3 18.3-18.5 18.5zm65.3-49.7l5.2 5.3-5.5 5.4-5.5 5.4-5.5-5.4-5.5-5.4 5.2-5.3c2.9-2.9 5.5-5.3 5.8-5.3.3 0 2.9 2.4 5.8 5.3zM42.2 237.7c2.6 2.6 4.8 5.2 4.8 5.8 0 .6-2.3 3.3-5 6l-5 4.9-5.5-5.4-5.5-5.4 5.2-5.3c2.9-2.9 5.5-5.3 5.7-5.3.3 0 2.7 2.1 5.3 4.7zm33.3 7.3c.5 0 3.7-2.7 7-6l6.1-6 5.4 5.5 5.4 5.5-6.4 6.5-6.4 6.5 6.4 6.5 6.4 6.5-4.9 5c-2.7 2.7-5.5 5-6.1 5-.7 0-3.8-2.8-6.8-6.2l-5.6-6.2-6.5 6.4-6.5 6.4-5.5-5.4-5.5-5.4 6-6.1c3.3-3.3 6-6.5 6-7.1 0-.5-2.7-3.6-6-6.9l-6-5.9 5.2-5.3 5.2-5.3 6.1 6c3.3 3.3 6.5 6 7 6zm45 4c-2.7 2.7-5.4 5-6 5-.6 0-3.3-2.3-6-5l-4.9-5 5.4-5.5 5.5-5.5 5.5 5.5 5.5 5.5-5 5zm77.3-10.7l5.2 5.3-5.5 5.4-5.5 5.4-5.5-5.4-5.5-5.4 5.2-5.3c2.9-2.9 5.5-5.3 5.8-5.3.3 0 2.9 2.4 5.8 5.3zm26.9.9l6.3 6.2 6.5-6.4 6.5-6.4 5.5 5.4 5.5 5.4-6.5 6.6-6.5 6.6 6 5.9c3.3 3.3 6 6.4 6 7 0 .6-2.3 3.3-5 6l-5 4.9-6.5-6.4-6.5-6.4-6.5 6.4-6.5 6.4-5.5-5.4-5.5-5.4 6.5-6.6 6.5-6.6-6.5-6.4-6.5-6.4 5.2-5.3c2.9-2.9 5.5-5.3 5.7-5.3.3 0 3.4 2.8 6.8 6.2zm50.5 10l-5.2 5.3-5.5-5.5-5.5-5.4 5.2-5.3 5.3-5.3 5.5 5.5 5.5 5.5-5.3 5.2zm-220 1.5c2.6 2.6 4.8 5.2 4.8 5.8 0 .6-2.3 3.3-5 6l-5 4.9-5.5-5.4-5.5-5.4 5.2-5.3c2.9-2.9 5.5-5.3 5.7-5.3.3 0 2.7 2.1 5.3 4.7zm52.3 11.3c-2.7 2.7-5.4 5-6 5-.6 0-3.3-2.3-6-5l-4.9-5 5.4-5.5 5.5-5.5 5.5 5.5 5.5 5.5-5 5zm103.3-10.7l5.2 5.3-5.5 5.4-5.5 5.4-5.5-5.4-5.5-5.4 5.2-5.3c2.9-2.9 5.5-5.3 5.8-5.3.3 0 2.9 2.4 5.8 5.3zm51.4-.6c2.6 2.6 4.8 5.2 4.8 5.8 0 .6-2.3 3.3-5 6l-5 4.9-5.5-5.4-5.5-5.4 5.2-5.3c2.9-2.9 5.5-5.3 5.7-5.3.3 0 2.7 2.1 5.3 4.7zm-220 13c2.6 2.6 4.8 5.2 4.8 5.8 0 .6-2.3 3.3-5 6l-5 4.9-5.5-5.4-5.5-5.4 5.2-5.3c2.9-2.9 5.5-5.3 5.7-5.3.3 0 2.7 2.1 5.3 4.7zm78.3 11.3c-2.7 2.7-5.4 5-6 5-.6 0-3.3-2.3-6-5l-4.9-5 5.4-5.5 5.5-5.5 5.5 5.5 5.5 5.5-5 5zm77.3-10.7l5.2 5.3-5.5 5.4-5.5 5.4-5-4.9c-2.7-2.7-5-5.4-5-5.9 0-1.1 9-10.6 10-10.6.3 0 2.9 2.4 5.8 5.3zm77.4-.6c2.6 2.6 4.8 5.2 4.8 5.8 0 .6-2.3 3.3-5 6l-5 4.9-5.5-5.4-5.5-5.4 5.2-5.3c2.9-2.9 5.5-5.3 5.7-5.3.3 0 2.7 2.1 5.3 4.7zM30.7 278.2l6.3 6.2 6.5-6.4 6.5-6.4 5 4.9c2.7 2.7 5 5.4 5 6 0 .6-5.2 6.2-11.5 12.5L37 306.5l-12-12-12-12 5.2-5.2c2.9-2.9 5.5-5.3 5.7-5.3.3 0 3.4 2.8 6.8 6.2zm50.5-1.5c2.6 2.6 4.8 5.2 4.8 5.8 0 .6-2.3 3.3-5 6l-5 4.9-5.5-5.4-5.5-5.4 5.2-5.3c2.9-2.9 5.5-5.3 5.7-5.3.3 0 2.7 2.1 5.3 4.7zm33.3 7.3c.5 0 3.7-2.7 7-6l6.1-6 5.2 5.3 5.2 5.2-12 12-12 12-11.7-11.7L90.5 283l5.5-5.5 5.4-5.5 6.1 6c3.3 3.3 6.5 6 7 6zm71.2-5.8l6.3 6.2 6.5-6.4 6.5-6.5 5.5 5.5 5.5 5.5-12 12-12 12-11.5-11.5c-6.3-6.3-11.5-11.9-11.5-12.4 0-1 9-10.6 9.9-10.6.3 0 3.4 2.8 6.8 6.2zm51.1-.9l5.2 5.3-5.5 5.4-5.5 5.4-5.5-5.4-5.5-5.4 5.2-5.3c2.9-2.9 5.5-5.3 5.8-5.3.3 0 2.9 2.4 5.8 5.3zm26.9.9l6.3 6.2 6.5-6.4 6.5-6.4 5 4.9c2.7 2.7 5 5.4 5 6 0 .6-5.2 6.2-11.5 12.5L270 306.5l-12-12-12-12 5.2-5.2c2.9-2.9 5.5-5.3 5.7-5.3.3 0 3.4 2.8 6.8 6.2zM68.2 289.7c2.6 2.6 4.8 5.2 4.8 5.7 0 .6-2.7 3.8-6 7.1l-6 6.1 6 5.9c3.3 3.3 6 6.4 6 7 0 .6-2.3 3.3-5 6l-5 4.9-12-11.9-12-12 11.7-11.7c6.5-6.5 12-11.8 12.3-11.8.2 0 2.6 2.1 5.2 4.7zm32.8 6.8l11.5 11.5-12 12-12 12-5.2-5.2-5.3-5.2 6-6.1c3.3-3.3 6-6.5 6-7.1 0-.5-2.7-3.6-6-6.9l-6-5.9 5.2-5.3c2.9-2.9 5.5-5.3 5.8-5.3.3 0 5.7 5.2 12 11.5zm44.8-6.2l5.2 5.3-6 5.9c-3.3 3.3-6 6.4-6 6.9 0 .6 2.7 3.8 6 7.1l6 6.1-5.5 5.4-5.5 5.4-11.5-11.4c-6.3-6.3-11.5-11.9-11.5-12.5 0-1 22-23.5 23-23.5.3 0 2.9 2.4 5.8 5.3zm32.5 6.5l11.7 11.7-12 12-12 11.9-5-4.9c-2.7-2.7-5-5.4-5-6 0-.6 2.7-3.7 6-7l6-5.9-6-6.1c-3.3-3.3-6-6.5-6-7 0-1 9-10.5 10-10.5.3 0 5.8 5.3 12.3 11.8zm45.5-6.5l5.2 5.3-6.5 6.4-6.5 6.4 6.5 6.6 6.5 6.6-5.5 5.4-5.5 5.5-12-12-12-12 11.7-11.7c6.5-6.5 12-11.8 12.3-11.8.3 0 2.9 2.4 5.8 5.3zm31.9 5.9c6.2 6.2 11.3 11.7 11.3 12.3 0 .6-5.2 6.2-11.5 12.5L244 332.4l-5.5-5.4-5.5-5.4 6.5-6.6 6.5-6.6-6.5-6.4-6.5-6.4 5.2-5.3c2.9-2.9 5.5-5.3 5.8-5.3.2 0 5.5 5.1 11.7 11.2zm-174.5 6.5c2.6 2.6 4.8 5.2 4.8 5.8 0 .6-2.3 3.3-5 6l-5 4.9-5.5-5.4-5.5-5.4 5.2-5.3c2.9-2.9 5.5-5.3 5.7-5.3.3 0 2.7 2.1 5.3 4.7zm77.6.6l5.2 5.3-5.5 5.4-5.5 5.4-5-4.9c-2.7-2.7-5-5.4-5-5.9 0-1.1 9-10.6 10-10.6.3 0 2.9 2.4 5.8 5.3zm78 0l5.2 5.3-5.5 5.4-5.5 5.4-5.5-5.4-5.5-5.4 5.2-5.3c2.9-2.9 5.5-5.3 5.8-5.3.3 0 2.9 2.4 5.8 5.3zM48.7 322.2c6.2 6.2 11.3 11.7 11.3 12.3 0 .6-2.3 3.3-5 6l-5 4.9-6.5-6.4-6.5-6.4-6.5 6.4-6.5 6.4-5.5-5.4-5.5-5.5 11.7-11.7c6.5-6.5 12-11.8 12.3-11.8.2 0 5.5 5.1 11.7 11.2zm78 .7l11.2 11.8-5.2 5.2-5.3 5.1-5.9-6c-3.3-3.3-6.4-6-6.9-6-.6 0-3.8 2.7-7.1 6l-6.1 6-5.4-5.5-5.4-5.5 11.4-11.5c6.3-6.3 11.9-11.5 12.5-11.5.5 0 6 5.3 12.2 11.9zm77.6-.1l11.7 11.7-5.5 5.5-5.5 5.4-6.5-6.4-6.5-6.4-6.5 6.4-6.5 6.4-5-4.9c-2.7-2.7-5-5.4-5-5.9 0-1.1 22-23.6 23-23.6.3 0 5.8 5.3 12.3 11.8zm77.4-.6c6.2 6.2 11.3 11.7 11.3 12.3 0 .6-2.3 3.3-5 6l-5 4.9-6.5-6.4-6.5-6.4-6.5 6.4-6.5 6.4-5.5-5.4-5.5-5.5 11.7-11.7c6.5-6.5 12-11.8 12.3-11.8.2 0 5.5 5.1 11.7 11.2zM81.5 329l4.9 5-5.4 5.5-5.4 5.5-5.3-5.2-5.3-5.2 5.2-5.3c2.9-2.9 5.5-5.3 5.8-5.3.3 0 2.8 2.3 5.5 5zm77.3.3l5.2 5.3-5.5 5.4-5.5 5.4-5-4.9c-2.7-2.7-5-5.4-5-5.9 0-1.1 9-10.6 10-10.6.3 0 2.9 2.4 5.8 5.3zm78 0l5.2 5.3-5.5 5.4-5.5 5.4-5.5-5.4-5.5-5.4 5.2-5.3c2.9-2.9 5.5-5.3 5.8-5.3.3 0 2.9 2.4 5.8 5.3zM42.2 341.7c2.6 2.6 4.8 5.2 4.8 5.8 0 .6-2.3 3.3-5 6l-5 4.9-5.5-5.4-5.5-5.4 5.2-5.3c2.9-2.9 5.5-5.3 5.7-5.3.3 0 2.7 2.1 5.3 4.7zm26.3.3l4.9 5-5.4 5.5-5.4 5.5-5.3-5.2-5.3-5.2 5.2-5.3c2.9-2.9 5.5-5.3 5.8-5.3.3 0 2.8 2.3 5.5 5zm26 0l4.9 5-5.4 5.5-5.5 5.5-5.5-5.5-5.5-5.5 5-5c2.7-2.7 5.4-5 6-5 .6 0 3.3 2.3 6 5zm26 0l4.9 5-5.4 5.5-5.5 5.5-5.5-5.5-5.5-5.5 5-5c2.7-2.7 5.4-5 6-5 .6 0 3.3 2.3 6 5zm25.5.1l5.4 4.9-5.4 5.5-5.5 5.5-5.5-5.5-5.5-5.5 5-5c2.7-2.7 5.2-5 5.5-5 .3.1 3 2.3 6 5.1zm25.8.2l5.2 5.3-5.5 5.4-5.5 5.4-5-4.9c-2.7-2.7-5-5.4-5-5.9 0-1.1 9-10.6 10-10.6.3 0 2.9 2.4 5.8 5.3zm26 0l5.2 5.3-5.5 5.4-5.5 5.4-5.5-5.4-5.5-5.4 5.2-5.3c2.9-2.9 5.5-5.3 5.8-5.3.3 0 2.9 2.4 5.8 5.3zm26 0l5.2 5.3-5.5 5.4-5.5 5.4-5.5-5.4-5.5-5.4 5.2-5.3c2.9-2.9 5.5-5.3 5.8-5.3.3 0 2.9 2.4 5.8 5.3zm26 0l5.2 5.3-5.5 5.4-5.5 5.4-5.5-5.4-5.5-5.4 5.2-5.3c2.9-2.9 5.5-5.3 5.8-5.3.3 0 2.9 2.4 5.8 5.3zm25.4-.6c2.6 2.6 4.8 5.2 4.8 5.8 0 .6-2.3 3.3-5 6l-5 4.9-5.5-5.4-5.5-5.4 5.2-5.3c2.9-2.9 5.5-5.3 5.7-5.3.3 0 2.7 2.1 5.3 4.7zM30.7 356.2l6.3 6.2 6.5-6.4 6.5-6.5 5.2 5.3 5.3 5.2-12 12-12 12-11.7-11.7L13 360.5l5.2-5.2c2.9-2.9 5.5-5.3 5.7-5.3.3 0 3.4 2.8 6.8 6.2zM94.5 368l18 18L94 404.5 75.5 423 57 404.5 38.5 386l18-18c9.9-9.9 18.4-18 19-18 .6 0 9.1 8.1 19 18zm14-12l5.9 6 6.1-6c3.3-3.3 6.5-6 7.1-6 .5 0 3.2 2.3 5.9 5l5 5-12 12-12 12-12-12-11.9-12 4.9-5c2.7-2.7 5.4-5 6-5 .6 0 3.7 2.7 7 6zm50.3-.7l5.2 5.3-5.3 5.2-5.3 5.2-5.4-5.5-5.4-5.5 4.9-5c2.7-2.7 5.2-5 5.5-5 .3 0 2.9 2.4 5.8 5.3zm26.9.9l6.3 6.2 6.5-6.4 6.5-6.5 5.5 5.5 5.5 5.5-12 12-12 12-12-12-12-12 5.2-5.2c2.9-2.9 5.5-5.3 5.7-5.3.3 0 3.4 2.8 6.8 6.2zm63.8 11.8l18 18-18.5 18.5-18.5 18.5-18.2-18.2-18.3-18.3 18.2-18.2c10.1-10.1 18.5-18.3 18.8-18.3.3 0 8.6 8.1 18.5 18zm14.2-11.8l6.3 6.2 6.5-6.4 6.5-6.5 5.2 5.3 5.3 5.2-12 12-12 12-11.7-11.7-11.8-11.8 5.2-5.2c2.9-2.9 5.5-5.3 5.7-5.3.3 0 3.4 2.8 6.8 6.2zM146.5 368l4.9 5-6.4 6.5-6.4 6.5 6.4 6.5 6.5 6.5-5.5 5.5-5.5 5.5-12-12-12-12 11.5-11.5c6.3-6.3 11.9-11.5 12.5-11.5.6 0 3.3 2.3 6 5zm31.8 6.8l11.7 11.7-11.8 11.8-11.7 11.7-5.5-5.5-5.4-5.5 6.4-6.5 6.4-6.5-6.4-6.5-6.4-6.5 4.9-5c2.7-2.7 5.2-5 5.5-5 .3 0 5.8 5.3 12.3 11.8zM159 391.5l-5.5 5.5-5.5-5.5-5.5-5.5 5.5-5.5 5.5-5.5 5.5 5.5 5.5 5.5-5.5 5.5zm-104 26l-5.4 5.5-6.6-6.5-6.6-6.5-6.4 6.5-6.5 6.5-5.5-5.5-5.5-5.5 12-12 12-12 12 12 12 12-5.5 5.5zm78 0l-5.4 5.5-6.6-6.5-6.6-6.5-6.4 6.5-6.5 6.5-5.5-5.5-5.5-5.5 12-12 12-12 12 12 12 12-5.5 5.5zm155 0l-5.4 5.5-6.6-6.5-6.6-6.5-6.4 6.5-6.5 6.5-5.5-5.5-5.5-5.5 12-12 12-12 12 12 12 12-5.5 5.5zm-83.7-16.7l11.7 11.7-5.3 5.3-5.3 5.2-6.4-6.5-6.4-6.5-6.6 6.5-6.6 6.5-5.4-5.5-5.4-5.5 11.4-11.5c6.3-6.3 11.7-11.5 12-11.5.3 0 5.8 5.3 12.3 11.8zM159 417.5l-5.5 5.5-5.5-5.5-5.5-5.5 5.5-5.5 5.5-5.5 5.5 5.5 5.5 5.5-5.5 5.5zm-117 13l-5.5 5.5-5.5-5.5-5.5-5.5 5.5-5.5 5.5-5.5 5.5 5.5 5.5 5.5-5.5 5.5zm26 0l-5.5 5.5-5.5-5.5-5.5-5.5 5.5-5.5 5.5-5.5 5.5 5.5 5.5 5.5-5.5 5.5zm26 0l-5.5 5.5-5.5-5.5-5.5-5.5 5.5-5.5 5.5-5.5 5.5 5.5 5.5 5.5-5.5 5.5zm26 0l-5.5 5.5-5.5-5.5-5.5-5.5 5.5-5.5 5.5-5.5 5.5 5.5 5.5 5.5-5.5 5.5zm26 0l-5.5 5.5-5.5-5.5-5.5-5.5 5.5-5.5 5.5-5.5 5.5 5.5 5.5 5.5-5.5 5.5zm26 0l-5.5 5.5-5.5-5.5-5.5-5.5 5.5-5.5 5.5-5.5 5.5 5.5 5.5 5.5-5.5 5.5zm26 0l-5.5 5.5-5.5-5.5-5.5-5.5 5.5-5.5 5.5-5.5 5.5 5.5 5.5 5.5-5.5 5.5zm51 0l-5.5 5.5-5.5-5.5-5.5-5.5 5.5-5.5 5.5-5.5 5.5 5.5 5.5 5.5-5.5 5.5zm26 0l-5.5 5.5-5.5-5.5-5.5-5.5 5.5-5.5 5.5-5.5 5.5 5.5 5.5 5.5-5.5 5.5zM223.5 420l5 5-5.3 5.3-5.2 5.2-5.2-5.2-5.3-5.3 5-5c2.7-2.7 5.2-5 5.5-5 .3 0 2.8 2.3 5.5 5zM43 433.5l6.5-6.5 5.5 5.5 5.5 5.5-12 12-12 12-12-12-12-12 5.5-5.5 5.4-5.5 6.6 6.5 6.6 6.5 6.4-6.5zm38 10l-5.5 5.5-5.5-5.5-5.5-5.5 5.5-5.5 5.5-5.5 5.5 5.5 5.5 5.5-5.5 5.5zm40-10l6.5-6.5 5.5 5.5 5.5 5.5-12 12-12 12-12-12-12-12 5.5-5.5 5.4-5.5 6.6 6.5 6.6 6.5 6.4-6.5zm38 10l-5.5 5.5-5.5-5.5-5.5-5.5 5.5-5.5 5.5-5.5 5.5 5.5 5.5 5.5-5.5 5.5zm40-10l6.5-6.5 5.3 5.3 5.2 5.2-12 12-12 12-11.7-11.7-11.8-11.8 5.5-5.5 5.4-5.5 6.6 6.5 6.5 6.5 6.5-6.5zm37.2 9.7l-5.2 5.3-5.5-5.5-5.5-5.4 5.2-5.3 5.3-5.3 5.5 5.5 5.5 5.5-5.3 5.2zm39.8-9.7l6.5-6.5 5.5 5.5 5.5 5.5-12 12-12 12-12-12-12-12 5.5-5.5 5.4-5.5 6.6 6.5 6.6 6.5 6.4-6.5zm-209 24l-6.4 6.5 6.4 6.5 6.4 6.5-4.9 5c-2.7 2.7-5.4 5-6 5-.6 0-6.2-5.2-12.5-11.5L38.5 464l12-12 12-12 5.5 5.5 5.5 5.5-6.5 6.5zm34 18c-6.3 6.3-11.9 11.5-12.5 11.5-.6 0-3.3-2.3-6-5l-4.9-5 6.4-6.5 6.4-6.5-6.4-6.5-6.4-6.5 5.4-5.5 5.5-5.5 12 12 12 12-11.5 11.5zm44-18l-6.4 6.5 6.4 6.5 6.4 6.5-4.9 5c-2.7 2.7-5.4 5-6 5-.6 0-6.2-5.2-12.5-11.5L116.5 464l12-12 12-12 5.5 5.5 5.5 5.5-6.5 6.5zm33 18l-12 12-5.2-5.2-5.3-5.3 6.5-6.5 6.4-6.5-6.4-6.5-6.4-6.5 5.4-5.5 5.5-5.5 11.7 11.7 11.8 11.8-12 12zm45.8-30.2l5.2 5.3-6.5 6.4-6.5 6.4 6.5 6.6 6.5 6.6-5.5 5.4-5.5 5.5-12-12-12-12 11.7-11.7c6.5-6.5 12-11.8 12.3-11.8.3 0 2.9 2.4 5.8 5.3zm32 30.4L244 487.5l-5.5-5.5-5.5-5.4 6.5-6.6 6.5-6.6-6.5-6.4-6.5-6.4 5.2-5.3 5.3-5.3 12 12 12 12-11.7 11.7zM81.5 469c-2.7 2.7-5.4 5-6 5-.6 0-3.3-2.3-6-5l-4.9-5 5.4-5.5 5.5-5.5 5.5 5.5 5.5 5.5-5 5zm78 0c-2.7 2.7-5.4 5-6 5-.6 0-3.3-2.3-6-5l-4.9-5 5.4-5.5 5.5-5.5 5.5 5.5 5.5 5.5-5 5zm77.3-10.7l5.2 5.3-5.5 5.4-5.5 5.4-5.5-5.4-5.5-5.4 5.2-5.3c2.9-2.9 5.5-5.3 5.8-5.3.3 0 2.9 2.4 5.8 5.3zM55.3 495.2l-5.3 5.3-6.5-6.5-6.5-6.4-6.5 6.4-6.5 6.4-5.5-5.4-5.5-5.5 11.7-11.7L36.5 466l12 12 12 12-5.2 5.2zm78.2-.2c-2.7 2.7-5.4 5-5.9 5-.6 0-3.8-2.7-7.1-6l-6.1-6-5.9 6c-3.3 3.3-6.4 6-7 6-.6 0-3.3-2.3-6-5l-4.9-5 11.9-12 12-12 12 12 12 12-5 5zm70.8-17.2l11.7 11.7-5.5 5.5-5.5 5.4-6.5-6.4-6.5-6.4-6.5 6.4-6.5 6.4-5.5-5.4-5.5-5.5 11.7-11.7c6.5-6.5 12-11.8 12.3-11.8.3 0 5.8 5.3 12.3 11.8zm84 17.4l-5.3 5.3-6.5-6.5-6.5-6.4-6.5 6.4-6.5 6.4-5.5-5.4-5.5-5.5 11.7-11.7 11.8-11.8 12 12 12 12-5.2 5.2zM81.5 495c-2.7 2.7-5.4 5-6 5-.6 0-3.3-2.3-6-5l-4.9-5 5.4-5.5 5.5-5.5 5.5 5.5 5.5 5.5-5 5zm155.3-10.7l5.2 5.3-5.5 5.4-5.5 5.4-5.5-5.4-5.5-5.4 5.2-5.3c2.9-2.9 5.5-5.3 5.8-5.3.3 0 2.9 2.4 5.8 5.3z"/>
  <path d="M0 38.6c0 1.1 2 4 4.5 6.4L9 49.4l-4.6 4.7C1.8 56.8 0 59.5.2 60.4c.2 1.2 2 0 6.6-4.6l6.2-6.4L6.5 43c-5-5-6.5-6-6.5-4.4zM299.7 43.7l-5.7 5.9 6 5.9c4.7 4.7 6 5.5 6 3.9 0-1.1-1.8-3.8-4-5.9l-4-3.9 4.1-4.2c2.3-2.3 3.9-4.9 3.7-5.8-.2-1.3-1.8-.2-6.1 4.1zM0 116.6c0 1.1 2 4 4.5 6.4l4.5 4.4-4.6 4.7c-2.6 2.7-4.4 5.4-4.2 6.3.2 1.2 2 0 6.6-4.6l6.2-6.4-6.5-6.4c-5-5-6.5-6-6.5-4.4zM299.5 121l-5.9 6 5.9 6c4.4 4.5 6.1 5.6 6.3 4.4.2-.9-1.5-3.6-3.9-6l-4.3-4.4 4.3-4.4c2.4-2.4 4.1-5.1 3.9-6-.2-1.2-1.9-.1-6.3 4.4zM0 193.6c0 1.1 2 4 4.5 6.4l4.5 4.4-4.6 4.7c-2.6 2.7-4.4 5.4-4.2 6.3.2 1.2 2 0 6.6-4.6l6.2-6.4-6.5-6.4c-5-5-6.5-6-6.5-4.4zM299.5 199l-5.9 6 5.9 6c4.4 4.5 6.1 5.6 6.3 4.4.2-.9-1.5-3.6-3.9-6l-4.3-4.4 4.3-4.4c2.4-2.4 4.1-5.1 3.9-6-.2-1.2-1.9-.1-6.3 4.4zM0 297.6c0 1.1 2 4 4.5 6.4l4.5 4.4-4.6 4.7c-2.6 2.7-4.4 5.4-4.2 6.3.2 1.2 2 0 6.6-4.6l6.2-6.4-6.5-6.4c-5-5-6.5-6-6.5-4.4zM299.7 302.7l-5.7 5.9 6 5.9c4.7 4.7 6 5.5 6 3.9 0-1.1-1.8-3.8-4-5.9l-4-3.9 4.1-4.2c2.3-2.3 3.9-4.9 3.7-5.8-.2-1.3-1.8-.2-6.1 4.1zM0 375.6c0 1.1 2 4 4.5 6.4l4.5 4.4-4.6 4.7c-2.6 2.7-4.4 5.4-4.2 6.3.2 1.2 2 0 6.6-4.6l6.2-6.4-6.5-6.4c-5-5-6.5-6-6.5-4.4zM299.5 380l-5.9 6 5.9 6c4.4 4.5 6.1 5.6 6.3 4.4.2-.9-1.5-3.6-3.9-6l-4.3-4.4 4.3-4.4c2.4-2.4 4.1-5.1 3.9-6-.2-1.2-1.9-.1-6.3 4.4zM0 452.6c0 1.1 2 4 4.5 6.4l4.5 4.4-4.6 4.7c-2.6 2.7-4.4 5.4-4.2 6.3.2 1.2 2 0 6.6-4.6l6.2-6.4-6.5-6.4c-5-5-6.5-6-6.5-4.4zM299.5 458l-5.9 6 5.9 6c4.4 4.5 6.1 5.6 6.3 4.4.2-.9-1.5-3.6-3.9-6l-4.3-4.4 4.3-4.4c2.4-2.4 4.1-5.1 3.9-6-.2-1.2-1.9-.1-6.3 4.4z"/>
</svg>
