<svg version="1.0" xmlns="http://www.w3.org/2000/svg" viewBox="0 0 188 350" stroke="#f53d5c" fill="#f53d5c">
  <path d="M1 174.5V349h186V0H1v174.5zM41.8 11.7l-.3 8.8-9.7.3-9.7.3-.3 9.7-.3 9.7-8.7.3-8.8.3V3h38.1l-.3 8.7zm40.7.3v8.5l-18.7.3L45 21V3l18.8.2 18.7.3V12zm20.3-.3l-.3 8.8h-17l-.3-7.4c-.2-4.1-.1-8 .2-8.8.4-.9 2.9-1.3 9.1-1.3h8.6l-.3 8.7zm41 0l-.3 8.8-18.7.3-18.8.2V3h38.1l-.3 8.7zM184.5 22v18.5l-8.7.3-8.8.3v-20l-10.2-.3-10.3-.3-.3-7.4c-.2-4.1-.1-8 .2-8.8.5-1.1 4.2-1.3 19.3-1.1l18.8.3V22zM62 32v9H42v20H24V42.7c0-10.1.3-18.7.7-19 .3-.4 8.9-.7 19-.7H62v9zm61 0v9h-20v20H85V41H65v-8.3c0-4.6.3-8.7.7-9 .3-.4 13.4-.7 29-.7H123v9zm40.8 10.2L164 61h-18V41h-20v-8.3c0-4.6.3-8.7.7-9.1.4-.3 8.8-.5 18.7-.4l18.1.3.3 18.7zm-142 20.5l-.3 18.8-8.7.3-8.8.3V44h18l-.2 18.7zM62 52.5V61H45V44h17v8.5zm20.8 10.2l-.3 18.8-18.7.3L45 82V64h20V44h18l-.2 18.7zM123 54v10h21v18h-38V44h17v10zm21-1.5V61h-18V44h18v8.5zm40.8 10.2l-.3 18.8-8.7.3-8.8.3V44h18l-.2 18.7zM42 74v10h20v18H42.1l-.3 10.2-.3 10.3h-17l-.3-29.3L24 64h18v10zm61-1v9.1l-8.7-.3-8.8-.3-.3-7.4c-.2-4.1-.1-8 .2-8.8.4-.9 2.8-1.3 9.1-1.3h8.5v9zm60.8 20.2l-.3 29.3h-17l-.3-10.3-.3-10.2h-20l.3-8.8.3-8.7 9.8-.3 9.7-.3v-9.3c0-5.1.3-9.6.7-9.9.3-.4 4.4-.7 9-.7h8.3l-.2 29.2zM21.5 93v8.5l-8.7.3-8.8.3v-8.4c0-4.6.3-8.7.7-9.1.4-.4 4.3-.5 8.8-.4l8 .3V93zm61 0v8.5l-8.7.3-8.8.3v-8.4c0-4.6.3-8.7.7-9.1.4-.4 4.3-.5 8.8-.4l8 .3V93zm20.3.3l.3 8.8-8.8-.3-8.8-.3-.3-7.4c-.2-4.1-.1-8 .2-8.8.4-1.1 2.5-1.3 8.8-1.1l8.3.3.3 8.8zM123 93v9h-17V84h17v9zm61.5 0v8.5l-8.7.3-8.8.3v-8.4c0-4.6.3-8.7.7-9.1.4-.4 4.3-.5 8.8-.4l8 .3V93zm-163 31v18.5l-8.7.3-8.8.3v-38.2l8.8.3 8.7.3V124zm61 0v18.5l-8.7.3-8.8.3V123H45v-18l18.8.2 18.7.3V124zm20.3-10.3l-.3 8.8h-17l-.3-7.4c-.2-4.1-.1-8 .2-8.8.4-.9 2.9-1.3 9.1-1.3h8.6l-.3 8.7zm41 0l-.3 8.8-10.2.3-10.3.3V143h-17v-38h38.1l-.3 8.7zm40.7 10.3v18.5l-8.7.3-8.8.3v-38.2l8.8.3 8.7.3V124zM42 135.5V146h20v17H24v-38h18v10.5zm20-1.5v9H45v-18h17v9zm41 1.5V146h20v17H65v-17h20v-9.8c0-5.4.3-10.2.7-10.5.3-.4 4.4-.7 9-.7h8.3v10.5zm41-1.5v9h-18v-18h18v9zm20 10v19h-38v-17h20v-9.8c0-5.4.3-10.2.7-10.5.3-.4 4.4-.7 9-.7h8.3v19zM22 154.5v8.5H4v-17h18v8.5zm163 0v8.5h-18v-17h18v8.5zM41.8 174.7l-.3 8.8h-37l-.3-8.8-.3-8.7h38.2l-.3 8.7zm40.7.3v8.5l-18.7.3-18.8.2v-18l18.8.2 18.7.3v8.5zm20.3-.3l-.3 8.8h-17l-.3-7.4c-.2-4.1-.1-8 .2-8.8.4-.9 2.9-1.3 9.1-1.3h8.6l-.3 8.7zm41 0l-.3 8.8-18.7.3-18.8.2v-18h38.1l-.3 8.7zm40.7.3v8.5h-38l-.3-7.4c-.2-4.1-.1-8 .2-8.8.5-1.1 4.2-1.3 19.3-1.1l18.8.3v8.5zm-163 20v8.5l-8.7.3-8.8.3v-8.4c0-4.6.3-8.7.7-9.1.4-.4 4.3-.5 8.8-.4l8 .3v8.5zm40.5 0v9H42v20H24v-18.3c0-10.1.3-18.7.7-19 .3-.4 8.9-.7 19-.7H62v9zm61 0v9h-20v20H85v-20H65v-8.3c0-4.6.3-8.7.7-9 .3-.4 13.4-.7 29-.7H123v9zm40.8 10.2l.2 18.8h-18v-20h-20v-8.3c0-4.6.3-8.7.7-9.1.4-.3 8.8-.5 18.7-.4l18.1.3.3 18.7zm20.7-10.2v8.5l-8.7.3-8.8.3v-8.4c0-4.6.3-8.7.7-9.1.4-.4 4.3-.5 8.8-.4l8 .3v8.5zM21.8 225.7l-.3 18.8-8.7.3-8.8.3V207h18l-.2 18.7zM62 215.5v8.5H45v-17h17v8.5zm20.8 10.2l-.3 18.8-18.7.3-18.8.2v-18h20v-20h18l-.2 18.7zM123 217v10h21v18h-38v-38h17v10zm21-1.5v8.5h-18v-17h18v8.5zm40.8 10.2l-.3 18.8-8.7.3-8.8.3V207h18l-.2 18.7zM42 237v10h20v18H42.1l-.3 10.2-.3 10.3h-17l-.3-29.3L24 227h18v10zm61-1v9.1l-8.7-.3-8.8-.3-.3-7.4c-.2-4.1-.1-8 .2-8.8.4-.9 2.8-1.3 9.1-1.3h8.5v9zm60.8 20.2l-.3 29.3h-17l-.3-10.3-.3-10.2h-20l.3-8.8.3-8.7 9.8-.3 9.7-.3v-9.3c0-5.1.3-9.6.7-9.9.3-.4 4.4-.7 9-.7h8.3l-.2 29.2zM21.5 256v8.5l-8.7.3-8.8.3v-8.4c0-4.6.3-8.7.7-9.1.4-.4 4.3-.5 8.8-.4l8 .3v8.5zm61 0v8.5l-8.7.3-8.8.3v-8.4c0-4.6.3-8.7.7-9.1.4-.4 4.3-.5 8.8-.4l8 .3v8.5zm20.3.3l.3 8.8-8.8-.3-8.8-.3-.3-7.4c-.2-4.1-.1-8 .2-8.8.4-1.1 2.5-1.3 8.8-1.1l8.3.3.3 8.8zm20.2-.3v9h-17v-18h17v9zm61.5 0v8.5l-8.7.3-8.8.3v-8.4c0-4.6.3-8.7.7-9.1.4-.4 4.3-.5 8.8-.4l8 .3v8.5zm-163 31v18.5l-8.7.3-8.8.3v-38.2l8.8.3 8.7.3V287zm61 0v18.5l-8.7.3-8.8.3V286H45v-18l18.8.2 18.7.3V287zm20.3-10.3l-.3 8.8h-17l-.3-7.4c-.2-4.1-.1-8 .2-8.8.4-.9 2.9-1.3 9.1-1.3h8.6l-.3 8.7zm41 0l-.3 8.8-10.2.3-10.3.3V306h-17v-38h38.1l-.3 8.7zm40.7 10.3v18.5l-8.7.3-8.8.3v-38.2l8.8.3 8.7.3V287zM42 298.5V309h20v17H24v-38h18v10.5zm20-1.5v9H45v-18h17v9zm41 1.5V309h20v17H65v-17h20v-9.8c0-5.4.3-10.2.7-10.5.3-.4 4.4-.7 9-.7h8.3v10.5zm41-1.5v9h-18v-18h18v9zm20 10v19h-38v-17h20v-9.8c0-5.4.3-10.2.7-10.5.3-.4 4.4-.7 9-.7h8.3v19zM22 319v10h20.1l-.3 8.8-.3 8.7h-37l-.3-18.8L4 309h18v10zm162.8 8.7l-.3 18.8h-38v-17l10.3-.3 10.2-.3V309h18l-.2 18.7zM82.5 338v8.5l-18.7.3-18.8.2v-18l18.8.2 18.7.3v8.5zm20.3-.3l-.3 8.8h-17l-.3-7.4c-.2-4.1-.1-8 .2-8.8.4-.9 2.9-1.3 9.1-1.3h8.6l-.3 8.7zm41 0l-.3 8.8-18.7.3-18.8.2v-18h38.1l-.3 8.7z"/>
</svg>
