<svg xmlns="http://www.w3.org/2000/svg" viewBox="0 0 595.28 595.28">
  <path d="M186.357 176.394h223.01v2.426h-223.01z"/>
  <path d="M185.144 176.218h2.426v58.601h-2.426zM408.154 176.218h2.426v58.601h-2.426z"/>
  <g>
    <path d="M186.357 416h223.01v2.426h-223.01z"/>
    <path d="M408.154 359.999h2.426v58.602h-2.426zM185.144 359.999h2.426v58.602h-2.426z"/>
  </g>
  <g>
    <path d="M152.099 322.563l1.141 1.014c-1.467 1.334-3.082 2-4.844 2-1.896 0-3.496-.653-4.802-1.96-1.307-1.306-1.96-2.874-1.96-4.702 0-1.812.653-3.374 1.96-4.689 1.306-1.316 2.907-1.974 4.802-1.974 1.762 0 3.377.671 4.844 2.01l-1.141 1.014c-1.196-1.055-2.43-1.584-3.703-1.584-1.389 0-2.587.506-3.598 1.517-1.011 1.011-1.517 2.247-1.517 3.707 0 1.473.506 2.713 1.517 3.72 1.011 1.008 2.21 1.513 3.598 1.513 1.273-.002 2.507-.53 3.703-1.586zM188.962 314.197c1.313 1.316 1.97 2.882 1.97 4.699 0 1.828-.657 3.399-1.97 4.712-1.313 1.313-2.916 1.969-4.811 1.969-1.89 0-3.491-.656-4.802-1.969-1.313-1.313-1.97-2.883-1.97-4.712 0-1.817.657-3.383 1.97-4.699 1.312-1.316 2.912-1.973 4.802-1.973 1.894.001 3.498.658 4.811 1.973zm-4.811-.542c-1.389 0-2.59.508-3.604 1.525-1.014 1.017-1.521 2.255-1.521 3.717 0 1.473.507 2.715 1.521 3.729 1.014 1.014 2.215 1.521 3.604 1.521 1.394 0 2.598-.507 3.612-1.521 1.014-1.014 1.521-2.257 1.521-3.729 0-1.462-.507-2.7-1.521-3.717-1.014-1.017-2.218-1.525-3.612-1.525zM217.108 312.405l7.423 10.411v-10.411h1.638v13.027h-1.81l-7.233-10.148v10.148h-1.639v-13.027h1.621zM254.791 318.58c-.935-.309-1.688-.745-2.254-1.313a2.798 2.798 0 01-.851-2.055c0-.784.295-1.474.883-2.068.588-.595 1.32-.893 2.195-.893.864 0 1.602.306 2.218.915.32.314.57.755.752 1.321l-1.467.57c-.18-.488-.344-.805-.489-.951-.296-.302-.634-.452-1.014-.452-.375 0-.708.146-1 .439-.292.292-.439.665-.439 1.117 0 .446.152.827.453 1.141.314.302.743.58 1.285.833 1.037.338 1.907.857 2.608 1.557.802.796 1.204 1.739 1.204 2.824 0 1.087-.398 2.027-1.192 2.82-.794.794-1.766 1.19-2.919 1.19-1.159 0-2.139-.408-2.941-1.222-.628-.621-1.014-1.427-1.16-2.416l1.576-.57c.096.946.365 1.638.806 2.072.482.484 1.055.725 1.719.725.67 0 1.254-.249 1.752-.747.497-.499.747-1.115.747-1.852 0-.736-.245-1.349-.733-1.838a5.451 5.451 0 00-1.739-1.147zM290.717 312.405h1.638v9.216a4.49 4.49 0 01-1.312 2.634c-.851.857-1.905 1.285-3.16 1.285-1.267 0-2.332-.433-3.195-1.299-.864-.867-1.295-1.894-1.295-3.083v-8.754h1.638v8.754c0 .833.284 1.535.851 2.105.568.57 1.234.855 2 .855.76 0 1.423-.285 1.988-.855.563-.57.846-1.272.846-2.105v-8.753zM317.391 325.432v-13.027h1.638v11.605h4.681v1.422h-6.319zM351.471 313.827v11.605h-1.63v-11.605h-3.115v-1.422h7.85v1.422h-3.105zM380.616 312.405v13.027h-1.638v-13.027h1.638zM407.337 312.405l7.423 10.411v-10.411h1.638v13.027h-1.81l-7.233-10.148v10.148h-1.639v-13.027h1.621zM452.479 323.658c-1.335 1.28-2.885 1.919-4.654 1.919-1.896 0-3.496-.653-4.802-1.96-1.307-1.306-1.96-2.874-1.96-4.702 0-1.812.653-3.374 1.96-4.689 1.306-1.316 2.907-1.974 4.802-1.974 1.762 0 3.377.671 4.844 2.01l-1.141 1.014c-1.196-1.055-2.43-1.584-3.703-1.584-1.389 0-2.587.506-3.598 1.517-1.011 1.011-1.517 2.247-1.517 3.707 0 1.473.506 2.713 1.517 3.72 1.011 1.008 2.21 1.513 3.598 1.513 1.189 0 2.197-.332 3.024-.996v-3.965h1.63v4.47z"/>
    <g>
      <path d="M141.121 269.337h16.494v3.875h-6.286v18.62h-3.875v-18.62h-6.333v-3.875zM165.732 269.337h3.875v8.995h8.223v-8.995h3.86v8.995h1.496v3.875h-1.496v9.626h-3.86v-9.626h-8.223v9.626h-3.875v-9.626h-1.402v-3.875h1.402v-8.995zM192.738 269.337h13.484v3.875h-9.624v5.119h7.545v3.875h-7.545v5.75h9.624v3.875h-13.484v-9.626h-1.072v-3.875h1.072v-8.993zM239.472 269.448c3.024 0 5.603 1.449 7.734 4.348.683 1.124 1.025 1.769 1.025 1.937h-.048c-2.174 1.188-3.302 1.78-3.386 1.78v-.047c-.284-.882-.93-1.832-1.938-2.852-.65-.482-1.018-.725-1.102-.725-.588-.388-1.382-.583-2.379-.583-.934 0-1.754.226-2.458.678-1.177.745-1.985 1.617-2.426 2.615-.672.988-1.008 2.359-1.008 4.112v.047c0 1.533.321 2.826.962 3.875.189.536.734 1.229 1.638 2.08 1.008.829 2.075 1.244 3.199 1.244h.189c.986 0 1.827-.241 2.52-.725 1.156-.672 2.028-1.67 2.616-2.994.157-.357.252-.536.282-.536 2.122 1.324 3.204 1.985 3.246 1.985v.048c-.315 1.039-1.218 2.299-2.71 3.78-1.827 1.544-3.844 2.316-6.049 2.316-2.699 0-5.083-1.192-7.151-3.576-1.744-2.247-2.616-4.809-2.616-7.687 0-3.476 1.307-6.443 3.924-8.901 1.823-1.48 3.803-2.219 5.936-2.219zM266.666 269.289c2.815 0 5.267 1.261 7.358 3.782 1.679 2.215 2.52 4.731 2.52 7.545 0 3.382-1.229 6.281-3.687 8.696-1.847 1.681-3.943 2.521-6.285 2.521-2.805 0-5.252-1.255-7.341-3.765-1.681-2.215-2.521-4.731-2.521-7.545 0-3.393 1.223-6.297 3.671-8.712 1.87-1.681 3.964-2.522 6.285-2.522zm-6.081 11.327c0 1.597.304 2.867.915 3.812.146.579.76 1.371 1.843 2.379 1.018.767 2.064 1.15 3.134 1.15h.189c1.104 0 2.058-.304 2.868-.913 1.364-.851 2.363-2.368 2.992-4.553.095-.652.142-1.307.142-1.969 0-1.608-.304-2.883-.913-3.828-.157-.568-.771-1.356-1.843-2.363-1.019-.778-2.064-1.167-3.135-1.167h-.204c-1.092 0-2.043.306-2.852.915-1.365.85-2.363 2.368-2.994 4.552a14.119 14.119 0 00-.142 1.985zM285.023 269.289h3.875v12.965c0 1.24.174 2.19.521 2.852.609 1.356 1.464 2.258 2.568 2.71.209.095.467.142.771.142h.489c.807 0 1.696-.577 2.662-1.733.736-1.186 1.103-2.41 1.103-3.67V269.29h3.875v12.824c0 3.129-1.014 5.692-3.04 7.687-1.471 1.354-3.12 2.032-4.947 2.032-2.689 0-4.91-1.481-6.664-4.443a11.556 11.556 0 01-1.214-5.183v-12.918zM309.366 269.399h10.398c2.792 0 4.824 1.35 6.096 4.049.293.851.441 1.644.441 2.379 0 2.342-1.081 4.211-3.246 5.608-.725.368-1.223.562-1.496.583l4.979 7.782c-2.112 1.354-3.193 2.032-3.246 2.032h-.047l-6.144-9.579h-2.71v9.532h-3.859v-9.532h-1.167v-3.859h1.167v-5.136h-1.167v-3.859zm5.026 3.861v5.136h5.765c.747 0 1.423-.467 2.033-1.402.157-.357.236-.667.236-.93v-.488c0-.693-.388-1.334-1.165-1.922-.431-.263-.799-.394-1.103-.394h-5.766zM335.018 269.337h16.494v3.875h-6.286v18.62h-3.875v-18.62h-6.333v-3.875zM362.843 269.242c.315.388 2.458 2.678 6.428 6.869 0 .041.262.299.787.771l7.248-7.64 2.803 2.663c-.043.01-2.751 2.867-8.128 8.569v11.359h-3.86v-11.359l-8.129-8.617 2.851-2.615zM393.913 269.242l3.576 9.153h2.411v3.859h-.915l3.151 8.176-3.638 1.402-3.671-9.579h-5.797l-3.733 9.532-3.576-1.402 3.151-8.129h-.977v-3.859h2.474c1.638-4.338 2.809-7.388 3.513-9.153h4.031zm-3.434 9.153h2.899l-1.449-3.687-1.45 3.687zM410.616 269.399h10.398c2.792 0 4.824 1.35 6.096 4.049.293.851.441 1.644.441 2.379 0 2.342-1.081 4.211-3.246 5.608-.725.368-1.223.562-1.496.583l4.979 7.782c-2.112 1.354-3.193 2.032-3.246 2.032h-.047l-6.144-9.579h-2.71v9.532h-3.859v-9.532h-1.167v-3.859h1.167v-5.136h-1.167v-3.859zm5.025 3.861v5.136h5.765c.747 0 1.423-.467 2.033-1.402.157-.357.236-.667.236-.93v-.488c0-.693-.388-1.334-1.165-1.922-.431-.263-.799-.394-1.103-.394h-5.766zM436.266 269.337h10.445c3.308 0 5.728 2.241 7.262 6.726a17.47 17.47 0 01.631 4.6c0 3.761-1.113 6.854-3.339 9.28-1.261 1.261-2.7 1.89-4.318 1.89h-10.681v-3.875h2.032v-14.745h-2.032v-3.876zm5.909 3.923v14.651h3.575c.42 0 .967.015 1.639.047.325 0 .871-.431 1.638-1.292 1.134-1.659 1.701-3.534 1.701-5.624v-.426c0-2.027-.342-3.655-1.024-4.884-.504-1.123-1.199-1.916-2.08-2.378a.776.776 0 00-.377-.095h-5.072z"/>
    </g>
  </g>
</svg>
