<svg version="1.0" xmlns="http://www.w3.org/2000/svg" viewBox="0 0 1575 1446" stroke="#F2192C" fill="#F2192C">
  <path d="M99 24.5V49l-24.7.2-24.8.3-.3 24.7L49 99H0v163h49v33H0v66l32.8-.2 32.7-.3.3-24.8.2-24.7h33v81H0v207h16V409h99V295H66v-33h49v-66H49v50l-16.2-.2-16.3-.3-.3-65.3L16 115h33v48h114V49h-48V16l65.3.2 65.2.3.3 16.2.2 16.3h-50v66h66V66h31v49h116V18h190V1H392v98h-82V66h49V0h-66v49h-31V0H99v24.5zm244 8V49h-33V16h33v16.5zm-244 50V99H66V66h33v16.5zm48 24V147H66v-32h49V66h32v40.5zm99-24V99h-34V66h34v16.5zM99 229v17H66v-34h33v17zm-50 98.5V344H16v-15.8c0-8.7.3-16.2.7-16.5.3-.4 7.8-.7 16.5-.7H49v16.5zM1030 8v8h186v50h99v49h64V49h-48V16h81v99h49v49l48.8.2 48.7.3v81l-16.2.3-16.3.2v-50h-65v66h48v97h50v191h16V295h-49v-33h49V148h-97v-33h49V49l-32.7.2-32.8.3-.3 24.7-.2 24.8h-33V0h-113v49h-33V0h-252v8zm235 24.5V49h-33V16h33v16.5zm98 50V99h-32V66h32v16.5zm148 0V99h-33V66h33v16.5zm-2 146.5v17h-31v-34h31v17zm49.8 98.2l.3 15.8H1526v-32l16.3.2 16.2.3.3 15.7zM0 975v128h49v32H0v214h49l.2 23.7.3 23.8 23.8.3 23.7.2v49h211v-49h33v49h258v-16H358v-33h49v-65l-32.7.2-32.8.3-.3 23.7-.2 23.8h-33v-97h-48v-97l-47.7-.2-47.8-.3-.3-25.3-.2-25.2H66v-32h49v-66l-32.7.2-32.8.3-.3 24.8-.2 24.7-16.3-.2-16.2-.3-.3-119.8L16 847H0v128zm99 95.5v16.5H66v-33h33v16.5zm-50 130v49.5h48v32H49v50H16v-181h33v49.5zm99-32v17.5H97v48H66v-83h82v17.5zm0 49.5v16h-34v-32h34v16zm96 24.5v40.5h-49v49h-31v-50h-50v-32h50v-48h80v40.5zm-146.8 80.7l.3 25.3 25.3.3 25.2.2v31H66v-82h31l.2 25.2zm50.8-8.2v17h-34v-34h34v17zm96 .5v16.5h-33v-33h33v16.5zm48 24v40.5h-81v-31h49v-50h32v40.5zm-97 33.5v24h97v33H114v-33h50v-48h31v24zm196-8.5v15.5h-33v-31h33v15.5zM1558 943v95h-49v49h-50.3l.5 73.5.5 73.5H1363v97h-147v49l-24.7.2-24.8.3-.3 24.7-.2 24.8H976v16h207v-49h33v49h64v-66h-48v-33h81v99h115v-49h32v49h115v-115h-49v-32h49v-115h-99v-80h33v48h65v-65h-49v-33h49V848h-16v95zm0 176.5v15.5h-33v-31h33v15.5zm.8 122.2l.2 41.3h-33v-49h-50v-33l21.8-.3c11.9-.1 30.5-.2 41.2-.2h19.5l.3 41.2zm-98.8 32.8v24.5h49v32h-49v49h-32v-49h-49v-81h81v24.5zm49-8v16.5h-33v-33h33v16.5zM1363 1372v25h49v33l-41.2-.2-41.3-.3-.3-41.3-.2-41.2h34v25zm49-8.5v16.5h-33v-33h33v16.5zm97 0v16.5h-33v-33h33v16.5zm49.8 24.7l-.3 41.3-41.2.3-41.3.2v-33l24.8-.2 24.7-.3.3-24.8.2-24.7h33l-.2 41.2zm-294.8 25.3v16.5h-32v-33h32v16.5z"/>
</svg>
